<?xml version="1.0"?>
<svg xmlns="http://www.w3.org/2000/svg" xmlns:xlink="http://www.w3.org/1999/xlink" version="1.1" viewBox="0 0 224 224" width="60px" height="60px"><g fill="none" fill-rule="nonzero" stroke="none" stroke-width="1" stroke-linecap="butt" stroke-linejoin="miter" stroke-miterlimit="10" stroke-dasharray="" stroke-dashoffset="0" font-family="none" font-weight="none" font-size="none" text-anchor="none" style="mix-blend-mode: normal"><path d="M0,224v-224h224v224z" fill="none"/><g fill="#d8cfd0"><path d="M179.2,29.86667h-134.4c-8.25067,0 -14.93333,6.68267 -14.93333,14.93333v134.4c0,8.25067 6.68267,14.93333 14.93333,14.93333h134.4c8.25067,0 14.93333,-6.68267 14.93333,-14.93333v-134.4c0,-8.25067 -6.68267,-14.93333 -14.93333,-14.93333zM81.78987,164.26667h-22.02667v-70.8736h22.02667zM70.55253,83.2608c-7.1008,0 -12.84267,-5.7568 -12.84267,-12.84267c0,-7.08587 5.74933,-12.8352 12.84267,-12.8352c7.0784,0 12.8352,5.7568 12.8352,12.8352c0,7.08587 -5.7568,12.84267 -12.8352,12.84267zM164.29653,164.26667h-22.01173v-34.46613c0,-8.2208 -0.14933,-18.7936 -11.4464,-18.7936c-11.46133,0 -13.22347,8.95253 -13.22347,18.19627v35.06347h-22.01173v-70.8736h21.13067v9.68427h0.29867c2.94187,-5.57013 10.1248,-11.4464 20.83947,-11.4464c22.30293,0 26.42453,14.67947 26.42453,33.76427z"/></g></g></svg>
